<svg width="26" height="26" viewBox="0 0 26 26" fill="none" xmlns="http://www.w3.org/2000/svg">
<path d="M13.0001 14.0834C13.5984 14.0834 14.0834 13.5984 14.0834 13.0001C14.0834 12.4018 13.5984 11.9167 13.0001 11.9167C12.4018 11.9167 11.9167 12.4018 11.9167 13.0001C11.9167 13.5984 12.4018 14.0834 13.0001 14.0834Z" stroke="white" stroke-width="2" stroke-linecap="round" stroke-linejoin="round"/>
<path d="M20.5833 14.0834C21.1816 14.0834 21.6667 13.5984 21.6667 13.0001C21.6667 12.4018 21.1816 11.9167 20.5833 11.9167C19.985 11.9167 19.5 12.4018 19.5 13.0001C19.5 13.5984 19.985 14.0834 20.5833 14.0834Z" stroke="white" stroke-width="2" stroke-linecap="round" stroke-linejoin="round"/>
<path d="M5.41659 14.0834C6.01489 14.0834 6.49992 13.5984 6.49992 13.0001C6.49992 12.4018 6.01489 11.9167 5.41659 11.9167C4.81828 11.9167 4.33325 12.4018 4.33325 13.0001C4.33325 13.5984 4.81828 14.0834 5.41659 14.0834Z" stroke="white" stroke-width="2" stroke-linecap="round" stroke-linejoin="round"/>
</svg>
