<svg width="26" height="26" viewBox="0 0 26 26" fill="none" xmlns="http://www.w3.org/2000/svg">
<g clip-path="url(#clip0_48_6082)">
<path d="M13 16.25C14.7949 16.25 16.25 14.7949 16.25 13C16.25 11.2051 14.7949 9.75 13 9.75C11.2051 9.75 9.75 11.2051 9.75 13C9.75 14.7949 11.2051 16.25 13 16.25Z" stroke="white" stroke-width="2" stroke-linecap="round" stroke-linejoin="round"/>
<path d="M21.0166 16.2499C20.8724 16.5767 20.8294 16.9391 20.8931 17.2906C20.9568 17.642 21.1243 17.9663 21.3741 18.2216L21.4391 18.2866C21.6405 18.4878 21.8003 18.7268 21.9094 18.9898C22.0184 19.2528 22.0745 19.5348 22.0745 19.8195C22.0745 20.1042 22.0184 20.3862 21.9094 20.6492C21.8003 20.9122 21.6405 21.1512 21.4391 21.3524C21.2379 21.5539 20.9989 21.7137 20.7359 21.8227C20.4728 21.9317 20.1909 21.9879 19.9062 21.9879C19.6214 21.9879 19.3395 21.9317 19.0765 21.8227C18.8134 21.7137 18.5745 21.5539 18.3732 21.3524L18.3083 21.2874C18.0529 21.0377 17.7286 20.8701 17.3772 20.8064C17.0258 20.7427 16.6633 20.7857 16.3366 20.9299C16.0162 21.0672 15.7429 21.2953 15.5504 21.5859C15.3579 21.8766 15.2546 22.2171 15.2533 22.5658V22.7499C15.2533 23.3246 15.025 23.8757 14.6186 24.282C14.2123 24.6883 13.6612 24.9166 13.0866 24.9166C12.5119 24.9166 11.9608 24.6883 11.5545 24.282C11.1482 23.8757 10.9199 23.3246 10.9199 22.7499V22.6524C10.9115 22.2938 10.7955 21.9461 10.5868 21.6543C10.3781 21.3626 10.0865 21.1404 9.74992 21.0166C9.42317 20.8724 9.06071 20.8294 8.70928 20.8931C8.35785 20.9568 8.03357 21.1243 7.77825 21.3741L7.71325 21.4391C7.51203 21.6405 7.27307 21.8003 7.01004 21.9094C6.74701 22.0184 6.46507 22.0745 6.18033 22.0745C5.8956 22.0745 5.61366 22.0184 5.35063 21.9094C5.0876 21.8003 4.84864 21.6405 4.64742 21.4391C4.44597 21.2379 4.28616 20.9989 4.17712 20.7359C4.06809 20.4728 4.01196 20.1909 4.01196 19.9062C4.01196 19.6214 4.06809 19.3395 4.17712 19.0765C4.28616 18.8134 4.44597 18.5745 4.64742 18.3732L4.71242 18.3083C4.96217 18.0529 5.1297 17.7286 5.19342 17.3772C5.25714 17.0258 5.21413 16.6633 5.06992 16.3366C4.93259 16.0162 4.70457 15.7429 4.41392 15.5504C4.12327 15.3579 3.78269 15.2546 3.43409 15.2533H3.24992C2.67528 15.2533 2.12418 15.025 1.71785 14.6186C1.31153 14.2123 1.08325 13.6612 1.08325 13.0866C1.08325 12.5119 1.31153 11.9608 1.71785 11.5545C2.12418 11.1482 2.67528 10.9199 3.24992 10.9199H3.34742C3.706 10.9115 4.05376 10.7955 4.34549 10.5868C4.63723 10.3781 4.85944 10.0865 4.98325 9.74992C5.12746 9.42317 5.17048 9.06071 5.10676 8.70928C5.04304 8.35785 4.8755 8.03357 4.62575 7.77825L4.56075 7.71325C4.3593 7.51203 4.19949 7.27307 4.09046 7.01004C3.98142 6.74701 3.9253 6.46507 3.9253 6.18033C3.9253 5.8956 3.98142 5.61366 4.09046 5.35063C4.19949 5.0876 4.3593 4.84864 4.56075 4.64742C4.76198 4.44597 5.00094 4.28616 5.26396 4.17712C5.52699 4.06809 5.80893 4.01196 6.09367 4.01196C6.3784 4.01196 6.66034 4.06809 6.92337 4.17712C7.1864 4.28616 7.42536 4.44597 7.62658 4.64742L7.69158 4.71242C7.9469 4.96217 8.27119 5.1297 8.62261 5.19342C8.97404 5.25714 9.3365 5.21413 9.66325 5.06992H9.74992C10.0703 4.93259 10.3436 4.70457 10.5361 4.41392C10.7286 4.12327 10.8319 3.78269 10.8333 3.43409V3.24992C10.8333 2.67528 11.0615 2.12418 11.4679 1.71785C11.8742 1.31153 12.4253 1.08325 12.9999 1.08325C13.5746 1.08325 14.1257 1.31153 14.532 1.71785C14.9383 2.12418 15.1666 2.67528 15.1666 3.24992V3.34742C15.168 3.69602 15.2713 4.03661 15.4638 4.32726C15.6562 4.6179 15.9295 4.84593 16.2499 4.98325C16.5767 5.12746 16.9391 5.17048 17.2906 5.10676C17.642 5.04304 17.9663 4.8755 18.2216 4.62575L18.2866 4.56075C18.4878 4.3593 18.7268 4.19949 18.9898 4.09046C19.2528 3.98142 19.5348 3.9253 19.8195 3.9253C20.1042 3.9253 20.3862 3.98142 20.6492 4.09046C20.9122 4.19949 21.1512 4.3593 21.3524 4.56075C21.5539 4.76198 21.7137 5.00094 21.8227 5.26396C21.9317 5.52699 21.9879 5.80893 21.9879 6.09367C21.9879 6.3784 21.9317 6.66034 21.8227 6.92337C21.7137 7.1864 21.5539 7.42536 21.3524 7.62658L21.2874 7.69158C21.0377 7.9469 20.8701 8.27119 20.8064 8.62261C20.7427 8.97404 20.7857 9.3365 20.9299 9.66325V9.74992C21.0672 10.0703 21.2953 10.3436 21.5859 10.5361C21.8766 10.7286 22.2171 10.8319 22.5658 10.8333H22.7499C23.3246 10.8333 23.8757 11.0615 24.282 11.4679C24.6883 11.8742 24.9166 12.4253 24.9166 12.9999C24.9166 13.5746 24.6883 14.1257 24.282 14.532C23.8757 14.9383 23.3246 15.1666 22.7499 15.1666H22.6524C22.3038 15.168 21.9632 15.2713 21.6726 15.4638C21.3819 15.6562 21.1539 15.9295 21.0166 16.2499Z" stroke="white" stroke-width="2" stroke-linecap="round" stroke-linejoin="round"/>
</g>
<defs>
<clipPath id="clip0_48_6082">
<rect width="26" height="26" fill="white"/>
</clipPath>
</defs>
</svg>
